<?xml version="1.0" standalone="no"?>
<!DOCTYPE svg PUBLIC "-//W3C//DTD SVG 20010904//EN"
 "http://www.w3.org/TR/2001/REC-SVG-20010904/DTD/svg10.dtd">
<svg version="1.0" xmlns="http://www.w3.org/2000/svg"
 width="512.000000pt" height="512.000000pt" viewBox="0 0 512.000000 512.000000"
 preserveAspectRatio="xMidYMid meet">

<g transform="translate(0.000000,512.000000) scale(0.100000,-0.100000)"
fill="#000000" stroke="none">
<path d="M2513 4742 c-13 -2 -23 -7 -23 -11 0 -4 -14 -8 -31 -9 -22 -2 -28 1
-23 10 6 9 3 9 -9 -1 -9 -7 -23 -11 -30 -8 -8 3 -22 -4 -31 -14 -9 -11 -21
-17 -26 -14 -6 3 -10 1 -10 -5 0 -6 -4 -8 -10 -5 -5 3 -10 2 -10 -4 0 -6 -12
-17 -27 -26 -28 -16 -28 -16 -3 -11 35 6 62 13 83 21 26 11 21 -18 -5 -32 -13
-7 -36 -17 -53 -24 -16 -7 -54 -25 -83 -41 -29 -15 -50 -23 -47 -18 8 14 0 13
-41 -5 -20 -8 -33 -19 -30 -24 3 -5 -2 -8 -12 -7 -9 0 -16 -5 -14 -12 1 -8 -2
-11 -8 -7 -16 10 -120 -74 -120 -96 0 -11 -3 -18 -7 -17 -5 2 -20 -10 -35 -25
-15 -15 -24 -27 -20 -27 4 -1 -3 -9 -16 -20 -14 -11 -20 -24 -16 -31 4 -7 3
-9 -3 -6 -6 4 -19 -6 -28 -21 l-18 -27 21 19 c30 26 28 15 -9 -44 -22 -36 -36
-49 -47 -45 -11 4 -12 2 -4 -8 8 -10 3 -30 -22 -82 -18 -39 -46 -106 -62 -150
-16 -44 -30 -73 -32 -64 -1 9 4 36 13 60 9 24 17 51 18 59 1 8 7 20 13 25 15
13 25 55 13 55 -11 0 -38 -52 -38 -76 0 -33 -73 -234 -82 -228 -5 3 -6 10 -3
16 5 7 2 8 -5 4 -7 -5 -10 -14 -7 -21 2 -7 -1 -18 -7 -24 -9 -9 -8 -11 6 -5
12 4 16 2 12 -7 -5 -16 -14 -60 -20 -104 -2 -16 -10 -72 -18 -122 -7 -51 -11
-93 -7 -93 3 0 6 -9 7 -20 1 -11 -2 -18 -7 -15 -5 3 -11 -16 -15 -42 -3 -27
-10 -72 -15 -102 -6 -30 -10 -67 -10 -82 0 -15 -5 -31 -12 -35 -6 -4 -8 -3 -5
3 3 5 7 51 8 101 1 50 5 89 10 86 15 -9 10 7 -8 24 -15 16 -16 16 -11 0 4 -9
4 -19 0 -22 -3 -4 -7 -14 -8 -24 -1 -9 -4 -30 -7 -47 -4 -16 -7 -49 -8 -72 -2
-23 -6 -40 -10 -37 -9 5 -30 -91 -34 -151 -1 -22 -8 -77 -15 -123 -7 -46 -10
-86 -6 -89 3 -3 1 -12 -5 -19 -7 -8 -7 -29 -1 -63 5 -28 5 -51 1 -51 -5 0 -9
-16 -9 -36 0 -19 4 -33 9 -29 6 3 8 -21 4 -62 -5 -63 -4 -66 10 -48 15 19 16
19 15 -13 -1 -22 -4 -29 -9 -20 -7 10 -9 10 -9 -2 0 -10 -3 -11 -8 -3 -4 6 -7
-20 -7 -58 0 -47 4 -72 13 -78 9 -6 15 -37 17 -97 l3 -89 -12 69 c-10 65 -12
68 -27 53 -16 -15 -17 -14 -21 23 -3 40 6 43 15 5 3 -15 5 -13 6 8 0 16 -6 36
-15 44 -8 9 -11 19 -6 22 11 8 13 91 1 111 -6 12 -8 11 -7 -5 0 -11 -3 -83 -7
-160 -6 -120 -7 -283 -1 -442 0 -26 -4 -45 -11 -48 -18 -6 -16 -25 2 -25 11 0
14 -7 10 -22 -3 -13 -7 -33 -8 -45 -1 -25 -12 -19 -20 12 -3 11 -3 -3 0 -30 3
-36 1 -54 -8 -62 -12 -9 -13 2 -11 65 5 100 -8 237 -19 202 -4 -17 -8 2 -9 55
0 44 -3 116 -4 160 -3 61 -2 72 5 48 12 -42 16 -42 15 2 -1 19 -3 35 -6 35 -3
0 -6 46 -6 103 -1 56 1 86 4 67 5 -33 5 -34 12 -10 6 20 8 15 9 -23 1 -34 -2
-46 -11 -41 -8 5 -9 2 -5 -10 4 -10 7 -20 7 -22 0 -2 5 -4 10 -4 6 0 10 20 10
45 0 29 4 45 13 45 7 0 8 3 2 8 -22 16 -35 40 -29 56 9 24 22 20 27 -9 4 -23
4 -23 3 2 -1 21 -6 28 -21 28 -13 0 -19 -6 -17 -15 2 -8 0 -12 -4 -8 -11 12
-10 78 1 78 7 0 7 3 0 8 -12 8 -13 37 -2 48 4 4 2 13 -4 21 -8 8 -8 17 -2 26
14 17 23 58 12 51 -5 -3 -9 0 -9 5 0 6 7 11 15 11 8 0 15 5 15 10 0 6 -4 10
-10 10 -5 0 -10 15 -10 33 0 24 3 28 10 17 7 -12 10 -8 10 15 0 20 -3 26 -9
17 -7 -11 -9 -11 -14 2 -6 14 4 21 26 17 4 0 7 3 7 9 0 5 -4 10 -8 10 -10 0 1
92 16 142 16 51 21 103 12 118 -5 9 -10 3 -14 -17 -4 -17 -6 -34 -5 -39 1 -5
0 -11 -1 -14 -1 -3 -3 -18 -5 -35 -2 -16 -7 -55 -11 -85 -7 -50 -9 -52 -15
-25 l-8 30 1 -35 c0 -19 -3 -43 -7 -53 -4 -9 -5 -26 -2 -37 3 -11 1 -18 -4
-14 -5 3 -9 -13 -9 -35 0 -30 -4 -41 -15 -41 -15 0 -17 -9 -19 -86 -1 -21 -5
-30 -13 -27 -8 3 -13 -4 -13 -18 0 -19 2 -21 10 -9 8 13 10 12 10 -2 0 -10 -4
-18 -9 -18 -10 0 -30 -82 -28 -115 0 -11 -2 -40 -6 -65 -5 -38 -4 -41 4 -17 6
15 15 27 20 27 6 0 5 -8 -1 -20 -6 -11 -10 -42 -9 -68 0 -26 -2 -58 -6 -71 -6
-19 -5 -22 5 -16 10 6 12 0 7 -28 -3 -23 -1 -38 6 -41 8 -4 8 -8 2 -11 -6 -3
-9 -23 -7 -44 2 -21 -1 -41 -6 -45 -6 -3 -8 -23 -5 -44 3 -25 -1 -44 -11 -57
-12 -15 -15 -16 -10 -3 9 25 10 138 2 138 -4 0 -10 -17 -13 -37 -3 -21 -11
-60 -17 -88 -9 -40 -13 -46 -19 -30 -8 20 -9 12 -9 -87 0 -39 -20 -35 -21 5
l-2 32 -4 -29 c-4 -23 -7 -26 -14 -15 -8 10 -9 8 -4 -8 8 -29 -2 -63 -19 -63
-15 0 -52 -95 -60 -150 -4 -34 -4 -34 7 -8 15 38 28 36 14 -2 -6 -16 -16 -30
-22 -30 -10 0 -15 -17 -18 -62 -1 -10 -5 -18 -10 -18 -4 0 -5 -5 -2 -11 4 -6
-1 -16 -11 -23 -10 -8 -15 -20 -11 -30 4 -9 2 -16 -3 -16 -4 0 -20 -23 -33
-52 -21 -44 -26 -48 -31 -30 -4 11 -2 29 3 39 6 10 20 42 32 71 12 28 26 52
31 52 5 0 6 5 3 10 -3 6 0 13 8 16 9 3 12 14 9 31 -3 14 0 28 6 32 7 4 8 12 2
21 -7 11 -10 12 -10 2 0 -7 -4 -11 -9 -8 -9 6 -32 -37 -36 -69 -2 -11 -9 -33
-16 -50 -11 -27 -14 -38 -23 -80 -1 -5 -10 -26 -20 -45 -32 -63 -55 -131 -43
-127 13 4 48 93 39 101 -3 4 0 6 7 6 8 0 10 -7 6 -21 -5 -16 -4 -19 5 -14 14
9 5 -31 -14 -55 -6 -8 -16 -25 -23 -37 -10 -18 -10 -22 5 -26 13 -4 13 -5 2
-6 -13 -1 -50 -66 -50 -87 0 -3 -9 -19 -21 -35 -11 -16 -22 -41 -24 -55 -1
-15 -9 -30 -16 -35 -12 -7 -12 -9 0 -9 12 0 12 -2 -1 -13 -31 -24 -155 -262
-173 -332 -5 -16 -7 -37 -6 -45 2 -13 1 -13 -8 0 -5 8 -7 18 -4 24 4 5 1 6 -6
2 -7 -5 -10 -10 -7 -13 3 -3 -4 -14 -15 -26 -10 -11 -19 -27 -19 -35 0 -8 -8
-26 -19 -40 -33 -47 -70 -128 -87 -191 -10 -34 -21 -61 -26 -61 -4 0 -18 -21
-30 -47 -12 -27 -23 -51 -25 -55 -2 -5 1083 -8 2411 -8 l2416 0 0 338 0 338
-55 54 c-31 30 -59 55 -63 55 -4 0 -6 3 -5 6 1 4 -25 28 -58 55 -33 26 -75 66
-94 90 -24 29 -45 44 -69 48 -38 7 -59 26 -29 26 12 0 7 7 -17 24 -19 13 -38
22 -42 19 -5 -2 -8 0 -8 4 0 5 -21 15 -47 23 -66 19 -183 80 -155 80 34 0 40
29 11 53 -24 20 -24 20 -1 13 19 -7 18 -3 -11 26 -41 40 -138 172 -162 219
-10 19 -24 41 -31 50 -8 8 -21 46 -30 82 -9 37 -20 67 -24 67 -4 0 -11 21 -15
46 -3 25 -9 56 -12 67 -2 12 -5 27 -5 34 -1 7 -7 14 -14 17 -7 3 -10 -2 -7
-15 3 -10 1 -19 -3 -19 -5 0 -10 28 -11 62 -1 35 -7 64 -13 66 -8 3 -8 8 1 18
9 11 8 18 -2 31 -12 15 -12 16 1 8 12 -7 13 -6 3 6 -7 8 -13 48 -15 88 -1 40
-6 75 -12 78 -5 3 -6 1 -2 -5 4 -7 2 -10 -6 -7 -8 3 -15 18 -16 32 -2 25 -1
25 11 9 12 -16 13 -12 13 32 0 28 -3 49 -7 46 -4 -2 -10 18 -14 46 -4 28 -10
48 -14 46 -3 -2 -7 21 -9 52 -2 32 -9 81 -18 110 -10 37 -12 58 -4 71 14 27
13 34 -6 27 -10 -4 -13 -2 -7 7 13 20 12 39 -1 61 -16 25 -31 99 -16 76 8 -13
10 -12 10 3 0 9 -7 17 -15 17 -11 0 -13 8 -10 33 4 25 3 28 -4 12 l-10 -20 -2
20 c-1 11 -1 28 -1 38 1 10 -1 16 -6 14 -4 -3 -8 18 -10 47 -2 28 -11 85 -21
126 -17 67 -19 71 -20 35 -2 -58 -18 -26 -27 52 -4 42 -11 63 -19 63 -8 0 -16
-8 -18 -17 -4 -14 -5 -13 -6 4 0 12 4 25 9 28 12 7 8 29 -15 100 -9 28 -18 73
-22 100 -3 28 -9 52 -14 55 -8 5 -39 73 -39 85 0 4 5 3 12 -1 7 -5 8 -3 2 7
-4 8 -9 20 -11 28 -1 8 -9 35 -17 62 -9 26 -13 55 -10 63 5 12 2 15 -12 9 -12
-4 -15 -3 -10 6 5 7 1 29 -7 49 -9 21 -28 69 -43 107 -37 97 -85 195 -96 195
-5 0 -6 5 -3 10 3 6 1 10 -5 10 -6 0 -9 4 -5 9 3 5 1 12 -5 16 -6 4 -8 10 -5
15 3 4 -2 13 -10 20 -8 7 -15 18 -15 25 0 7 -7 15 -15 19 -14 5 -40 52 -37 67
2 11 -184 199 -197 199 -7 0 -9 -5 -5 -12 5 -7 3 -8 -5 -4 -7 5 -10 10 -7 13
6 6 -74 73 -87 73 -5 0 -22 9 -38 21 -16 11 -29 17 -29 12 0 -5 29 -26 65 -46
36 -21 65 -40 65 -43 0 -3 -15 4 -34 15 -19 12 -59 34 -90 50 -31 15 -54 30
-51 33 3 3 -7 10 -22 17 -26 10 -27 10 -9 -4 18 -14 17 -15 -25 -11 -24 2 -46
5 -49 6 -3 1 -8 2 -12 1 -4 0 -9 8 -13 18 -3 12 -22 23 -50 30 -25 6 -45 14
-45 16 0 3 11 3 24 -1 14 -3 31 -2 38 2 9 6 4 10 -17 14 -16 4 -29 10 -28 16
1 5 -22 9 -51 9 -46 -1 -121 11 -88 14 6 1 12 4 12 9 0 4 -28 6 -62 6 -35 -1
-71 3 -81 8 -21 11 -64 16 -94 10z m-19 -40 c2 -4 -5 -9 -17 -9 -17 -2 -19 0
-7 7 18 12 18 12 24 2z m76 -37 c0 -17 -28 -20 -50 -4 -12 9 -11 10 8 6 12 -3
22 -1 22 4 0 5 5 9 10 9 6 0 10 -7 10 -15z m35 -15 c3 -6 -1 -7 -9 -4 -18 7
-21 14 -7 14 6 0 13 -4 16 -10z m-126 -9 c10 -6 -4 -11 -45 -16 -39 -5 -73
-17 -101 -36 -23 -15 -45 -24 -48 -20 -8 15 40 42 115 66 55 17 61 17 79 6z
m441 -54 c0 -5 7 -6 16 -3 8 3 28 -1 45 -9 16 -9 29 -11 29 -6 0 6 15 5 38 -1
48 -13 176 -78 168 -85 -3 -3 -17 2 -32 12 -36 24 -79 35 -95 24 -8 -5 -16 -3
-21 4 -4 7 -28 13 -53 13 -51 2 -135 22 -150 37 -6 6 -2 7 13 2 12 -3 22 -4
22 -1 0 3 -15 10 -32 15 -33 9 -33 9 10 8 23 -1 42 -5 42 -10z m-270 -17 c0
-5 7 -7 15 -4 11 5 15 -1 15 -20 0 -20 5 -26 23 -27 16 -1 18 -2 5 -6 -19 -5
-23 -15 -11 -26 3 -4 13 -1 22 6 14 11 14 10 2 -5 -7 -10 -19 -18 -27 -18 -7
0 -16 -5 -19 -10 -4 -7 15 -9 57 -7 35 3 50 3 33 0 -56 -8 -52 -24 5 -22 30 1
57 5 60 8 3 4 21 4 40 0 35 -6 35 -6 5 -9 -29 -2 -28 -2 9 -11 22 -5 44 -7 50
-5 6 2 3 5 -6 5 -19 1 -24 16 -9 26 6 3 15 -3 21 -14 6 -11 29 -26 53 -32 54
-16 72 -31 27 -24 -25 5 -16 -2 35 -24 38 -17 79 -40 90 -52 l20 -21 -42 21
c-58 29 -67 26 -15 -5 41 -25 55 -38 28 -28 -8 3 -17 0 -22 -7 -5 -9 -2 -10 9
-6 8 3 21 -1 27 -9 7 -8 17 -14 23 -14 6 0 2 7 -9 15 -10 8 -15 15 -10 15 12
0 46 -31 46 -42 0 -4 29 -37 65 -72 37 -36 65 -72 65 -83 0 -11 32 -53 73 -95
39 -41 96 -106 126 -144 30 -38 72 -84 94 -101 21 -18 35 -33 29 -33 -5 0 -15
7 -22 15 -25 30 -26 14 -4 -32 13 -27 26 -64 29 -83 3 -19 10 -66 16 -105 7
-44 9 -156 6 -305 -6 -249 -9 -275 -91 -765 -50 -301 -115 -434 -300 -617 -69
-68 -77 -79 -63 -92 8 -8 18 -12 22 -8 5 4 5 -1 1 -12 -4 -13 -2 -17 8 -13 10
4 16 -5 22 -31 4 -20 6 -41 5 -47 -3 -14 21 -99 30 -105 5 -3 15 -22 23 -41
15 -35 14 -37 -15 -72 -39 -48 -155 -142 -248 -202 -111 -72 -232 -128 -371
-173 -144 -47 -224 -63 -332 -68 -65 -3 -88 1 -160 27 -124 45 -196 87 -260
151 -59 59 -89 106 -95 146 -5 28 36 86 78 111 16 10 26 21 22 24 -3 4 5 7 19
7 26 0 48 32 48 70 0 10 4 29 9 42 5 13 15 44 21 70 8 31 17 45 24 41 6 -4 4
2 -4 13 -8 10 -10 16 -5 11 5 -4 15 11 22 34 l14 41 -99 102 c-184 189 -242
320 -291 652 -11 76 -23 168 -26 204 -3 36 -10 94 -15 130 -5 36 -12 166 -15
290 -2 124 -8 272 -11 330 -6 101 4 215 26 290 9 31 21 53 66 119 6 9 40 47
77 85 37 38 67 76 67 83 0 7 4 13 9 13 5 0 51 41 103 91 51 51 86 88 78 84
-10 -6 -8 -1 4 13 23 26 45 30 25 5 -12 -16 -12 -17 2 -6 9 7 19 11 22 8 4 -3
5 -2 2 1 -10 15 58 56 80 48 8 -3 15 -1 15 5 0 6 9 11 20 11 11 0 20 4 20 10
0 5 18 14 40 20 22 6 40 15 40 21 0 6 9 8 20 4 11 -4 20 -2 20 4 0 6 7 8 15 5
8 -4 15 -1 15 6 0 6 5 8 13 4 8 -5 8 -2 -2 9 -12 15 -11 17 3 17 9 0 16 -6 17
-12 0 -10 2 -10 6 0 2 6 9 9 15 6 6 -4 6 2 -1 14 -17 31 -74 38 -135 17 -28
-10 -56 -22 -62 -26 -6 -5 -13 -7 -16 -4 -2 3 -5 -1 -5 -8 0 -11 6 -11 29 1
16 8 31 12 34 9 3 -2 -8 -9 -23 -15 -34 -13 -99 -65 -68 -56 11 4 3 -5 -18
-20 -43 -30 -67 -35 -46 -9 13 15 12 15 -11 3 -16 -8 -20 -15 -12 -18 10 -3
10 -7 1 -18 -6 -8 -15 -11 -20 -9 -10 7 -101 -34 -111 -49 -5 -8 -8 -8 -8 0 0
11 194 211 226 232 10 7 13 10 6 7 -32 -16 -72 -23 -66 -13 5 8 1 9 -10 5 -10
-4 -15 -3 -11 3 3 6 15 10 26 10 10 0 19 4 19 9 0 4 33 16 73 26 39 9 77 21
82 25 19 14 113 33 131 26 15 -6 16 -9 4 -16 -8 -5 -18 -6 -22 -4 -4 3 -8 1
-8 -5 0 -6 -6 -8 -14 -5 -21 8 -194 -42 -183 -53 3 -2 17 1 33 8 16 6 47 13
69 16 22 2 45 9 52 14 8 7 19 7 33 -1 11 -6 24 -8 29 -5 11 6 42 -5 37 -14 -2
-3 14 -6 36 -7 29 -1 38 2 34 12 -3 8 -1 14 5 14 6 0 8 7 5 15 -3 9 1 18 10
22 15 5 15 7 0 15 -14 8 -13 11 5 29 11 11 24 17 29 14 6 -4 10 -1 10 4 0 6 5
11 10 11 6 0 10 -4 10 -10z m-274 -26 c-22 -8 -41 -12 -44 -9 -3 2 1 7 9 9 8
2 21 7 29 9 36 12 41 4 6 -9z m539 -24 c-3 -5 2 -10 11 -10 10 0 15 -2 12 -5
-3 -4 -18 -3 -34 1 -25 6 -26 8 -9 15 27 10 27 10 20 -1z m145 -2 c0 -4 -8 -4
-17 -1 -15 6 -16 4 -5 -9 11 -14 8 -14 -30 -5 -79 18 -82 24 -15 23 37 -1 67
-4 67 -8z m-217 -7 c5 -1 6 -5 3 -10 -3 -5 21 -12 54 -16 33 -4 63 -11 66 -16
3 -5 10 -6 16 -3 7 4 8 2 4 -5 -4 -6 -13 -8 -19 -4 -7 4 -25 8 -42 10 -85 5
-144 17 -163 32 -21 16 -21 16 26 14 26 -1 51 -2 55 -2z m302 -21 c3 -6 -1 -7
-9 -4 -18 7 -21 14 -7 14 6 0 13 -4 16 -10z m-1160 -70 c-3 -5 -12 -10 -18
-10 -7 0 -6 4 3 10 19 12 23 12 15 0z m1396 -37 c13 -16 12 -17 -3 -4 -17 13
-22 21 -14 21 2 0 10 -8 17 -17z m-245 -45 c19 -11 34 -22 34 -24 0 -5 -71 28
-95 44 -19 13 -19 14 4 7 13 -4 39 -16 57 -27z m279 12 c3 -5 1 -10 -4 -10 -6
0 -11 5 -11 10 0 6 2 10 4 10 3 0 8 -4 11 -10z m65 -65 c7 -9 8 -15 2 -15 -5
0 -12 7 -16 15 -3 8 -4 15 -2 15 2 0 9 -7 16 -15z m-270 -19 c0 -2 -9 -2 -20
1 -11 3 -20 9 -20 15 0 5 9 4 20 -2 11 -6 20 -12 20 -14z m-1193 -26 c-19 -16
-37 -30 -41 -30 -9 0 57 59 67 60 4 0 -8 -13 -26 -30z m-37 -63 c0 -2 -10 -12
-22 -23 l-23 -19 19 23 c18 21 26 27 26 19z m1424 -73 c7 -19 2 -18 -19 6 -16
17 -16 20 -3 15 9 -4 19 -13 22 -21z m99 -144 c31 -52 11 -32 -27 28 -20 31
-27 45 -14 30 13 -15 32 -41 41 -58z m-48 -8 c-6 -7 -35 18 -35 31 0 5 9 2 20
-8 11 -10 18 -20 15 -23z m-1805 -153 c-11 -38 -26 -55 -17 -19 4 14 7 31 7
38 0 6 4 12 9 12 6 0 6 -12 1 -31z m-33 -91 c-3 -8 -6 -5 -6 6 -1 11 2 17 5
13 3 -3 4 -12 1 -19z m-4 -55 c-11 -69 -23 -92 -18 -35 4 48 10 72 20 72 2 0
1 -17 -2 -37z m-26 -115 c-3 -8 -6 -5 -6 6 -1 11 2 17 5 13 3 -3 4 -12 1 -19z
m-4 -38 c-3 -11 -7 -20 -9 -20 -2 0 -4 9 -4 20 0 11 4 20 9 20 5 0 7 -9 4 -20z
m-16 -52 c-3 -8 -6 -5 -6 6 -1 11 2 17 5 13 3 -3 4 -12 1 -19z m8 -27 c3 -5 1
-12 -5 -16 -5 -3 -10 1 -10 9 0 18 6 21 15 7z m5 -51 c0 -5 -5 -10 -11 -10 -5
0 -7 5 -4 10 3 6 8 10 11 10 2 0 4 -4 4 -10z m-10 -87 c0 -17 -5 -35 -10 -38
-6 -3 -7 -18 -4 -33 4 -21 3 -24 -5 -12 -6 8 -10 31 -10 50 0 29 2 31 9 15 8
-19 9 -19 9 3 1 12 -3 22 -8 22 -4 0 -6 12 -3 26 6 34 22 11 22 -33z m2317
-160 c-3 -10 -5 -4 -5 12 0 17 2 24 5 18 2 -7 2 -21 0 -30z m-2300 -90 c-3
-10 -5 -4 -5 12 0 17 2 24 5 18 2 -7 2 -21 0 -30z m-167 -308 c0 -19 -2 -35
-4 -35 -2 0 -6 16 -8 35 -2 19 0 35 4 35 4 0 8 -16 8 -35z m2407 3 c-3 -8 -6
-5 -6 6 -1 11 2 17 5 13 3 -3 4 -12 1 -19z m-2414 -73 c-7 -21 -12 -19 -10 4
0 11 5 18 9 15 4 -3 5 -11 1 -19z m14 -67 c-3 -8 -6 -5 -6 6 -1 11 2 17 5 13
3 -3 4 -12 1 -19z m-22 3 c3 -5 1 -12 -5 -16 -5 -3 -10 1 -10 9 0 18 6 21 15
7z m-155 -48 c0 -29 -4 -43 -8 -35 -5 7 -7 23 -6 35 1 12 3 28 3 35 1 6 3 12
6 12 3 0 5 -21 5 -47z m2557 -15 c-2 -13 -4 -3 -4 22 0 25 2 35 4 23 2 -13 2
-33 0 -45z m40 40 c-3 -8 -6 -5 -6 6 -1 11 2 17 5 13 3 -3 4 -12 1 -19z m90
-125 c-2 -16 -4 -5 -4 22 0 28 2 40 4 28 2 -13 2 -35 0 -50z m-130 20 c-3 -10
-5 -4 -5 12 0 17 2 24 5 18 2 -7 2 -21 0 -30z m160 -35 c-3 -8 -6 -5 -6 6 -1
11 2 17 5 13 3 -3 4 -12 1 -19z m-2714 -70 c2 -43 1 -78 -2 -78 -4 0 -8 37 -9
82 -4 103 4 100 11 -4z m2772 52 c3 -5 1 -10 -4 -10 -6 0 -11 5 -11 10 0 6 2
10 4 10 3 0 8 -4 11 -10z m-65 -51 c0 -16 -5 -29 -11 -29 -6 0 -9 6 -6 13 2 6
0 25 -4 40 -7 24 -6 27 6 17 8 -7 15 -25 15 -41z m77 -1 c-3 -8 -6 -5 -6 6 -1
11 2 17 5 13 3 -3 4 -12 1 -19z m-106 -99 c-8 -38 -9 -40 -10 -12 -1 17 2 39
5 48 11 29 14 10 5 -36z m116 36 c0 -8 -4 -12 -9 -9 -4 3 -8 9 -8 15 0 5 4 9
8 9 5 0 9 -7 9 -15z m-2811 -114 c-1 -50 -4 -87 -8 -83 -14 15 -14 172 1 172
4 0 8 -40 7 -89z m2801 57 c-3 -7 -5 -2 -5 12 0 14 2 19 5 13 2 -7 2 -19 0
-25z m-44 2 c3 -11 1 -18 -4 -14 -5 3 -9 12 -9 20 0 20 7 17 13 -6z m-2736
-52 c-3 -8 -6 -5 -6 6 -1 11 2 17 5 13 3 -3 4 -12 1 -19z m2660 0 c-3 -8 -6
-5 -6 6 -1 11 2 17 5 13 3 -3 4 -12 1 -19z m-2530 -30 c-3 -7 -5 -2 -5 12 0
14 2 19 5 13 2 -7 2 -19 0 -25z m2520 -27 c-1 -21 -5 -37 -8 -35 -3 2 -11 -8
-18 -22 -16 -35 -13 -44 5 -14 l15 25 -6 -30 c-7 -32 -25 -58 -25 -36 0 7 -4
10 -9 7 -5 -3 -8 15 -6 41 1 26 7 49 14 51 9 3 9 7 0 18 -9 11 -7 14 10 14 11
0 21 5 21 10 0 6 2 10 5 10 2 0 4 -18 2 -39z m-2537 -10 c0 -17 -4 -32 -8 -35
-5 -3 -8 11 -8 29 1 42 16 47 16 6z m30 -27 c0 -25 -4 -34 -16 -34 -11 0 -14
5 -10 16 3 9 6 27 6 40 0 14 4 22 10 19 6 -3 10 -22 10 -41z m2717 14 c-3 -8
-6 -5 -6 6 -1 11 2 17 5 13 3 -3 4 -12 1 -19z m-2690 -60 c-3 -8 -6 -5 -6 6
-1 11 2 17 5 13 3 -3 4 -12 1 -19z m-35 -38 c3 -17 1 -33 -4 -36 -4 -3 -8 11
-8 30 0 44 6 47 12 6z m2488 -14 c0 -2 -7 -6 -15 -10 -8 -3 -15 -1 -15 4 0 6
7 10 15 10 8 0 15 -2 15 -4z m-2513 -63 c-3 -10 -5 -4 -5 12 0 17 2 24 5 18 2
-7 2 -21 0 -30z m77 -43 c-6 -5 -24 21 -24 34 0 6 6 1 14 -10 8 -10 12 -21 10
-24z m-61 -125 c-3 -47 -8 -84 -9 -82 -2 2 -6 55 -9 118 -4 105 -4 111 10 82
10 -25 12 -55 8 -118z m64 83 c-3 -7 -5 -2 -5 12 0 14 2 19 5 13 2 -7 2 -19 0
-25z m19 -45 c-10 -10 -19 5 -10 18 6 11 8 11 12 0 2 -7 1 -15 -2 -18z m-291
-52 c0 -21 -3 -37 -7 -34 -7 3 -13 -45 -9 -69 0 -5 -3 -8 -9 -8 -5 0 -6 -7 -3
-17 4 -11 3 -14 -6 -9 -7 5 -9 15 -6 25 10 23 16 61 16 101 0 27 8 45 24 50 1
0 1 -18 0 -39z m294 -30 c1 -48 -5 -35 -12 24 -4 32 -3 43 3 30 5 -11 9 -35 9
-54z m-182 -3 c-3 -7 -5 -2 -5 12 0 14 2 19 5 13 2 -7 2 -19 0 -25z m-177 -48
c0 -11 -2 -20 -4 -20 -2 0 -6 9 -9 20 -3 11 -1 20 4 20 5 0 9 -9 9 -20z m267
-22 c-3 -8 -6 -5 -6 6 -1 11 2 17 5 13 3 -3 4 -12 1 -19z m100 -20 c-3 -8 -6
-5 -6 6 -1 11 2 17 5 13 3 -3 4 -12 1 -19z m-427 -8 c0 -5 -2 -10 -4 -10 -3 0
-8 5 -11 10 -3 6 -1 10 4 10 6 0 11 -4 11 -10z m47 -12 c-3 -8 -6 -5 -6 6 -1
11 2 17 5 13 3 -3 4 -12 1 -19z m40 -40 c-3 -7 -5 -2 -5 12 0 14 2 19 5 13 2
-7 2 -19 0 -25z m-101 -7 c-4 -6 -13 -11 -19 -11 -8 0 -7 3 2 9 8 5 10 14 6
22 -6 11 -5 11 5 2 7 -6 9 -16 6 -22z m65 0 c7 11 9 11 9 -3 0 -10 -5 -18 -11
-18 -6 0 -9 -7 -5 -15 7 -19 -4 -79 -13 -68 -4 4 -5 35 -2 68 2 33 6 51 9 41
3 -15 6 -16 13 -5z m276 -103 c-2 -13 -4 -3 -4 22 0 25 2 35 4 23 2 -13 2 -33
0 -45z m-302 -67 c3 -5 1 -12 -5 -16 -5 -3 -10 1 -10 9 0 18 6 21 15 7z m-35
-98 c-11 -17 -11 -17 -6 0 3 10 6 24 7 30 0 9 2 9 5 0 3 -7 0 -20 -6 -30z m15
-142 c-4 -17 -11 -31 -16 -31 -12 0 -12 17 1 25 6 3 10 16 10 27 0 12 3 19 6
15 3 -3 3 -19 -1 -36z m-33 -100 c-10 -28 -19 -45 -21 -39 -5 14 20 88 30 88
4 0 0 -22 -9 -49z m3448 -11 c0 -5 -2 -10 -4 -10 -3 0 -8 5 -11 10 -3 6 -1 10
4 10 6 0 11 -4 11 -10z m123 -17 c-7 -2 -19 -2 -25 0 -7 3 -2 5 12 5 14 0 19
-2 13 -5z m107 -13 c20 -6 21 -8 5 -8 -11 0 -31 4 -45 8 -20 6 -21 8 -5 8 11
0 31 -4 45 -8z m-3718 -59 c22 33 -7 -39 -33 -81 -35 -55 -37 -48 -5 16 13 26
23 52 22 58 -2 6 -1 7 2 2 2 -4 9 -2 14 5z m-188 -52 c-3 -5 -10 -7 -15 -3 -5
3 -7 10 -3 15 3 5 10 7 15 3 5 -3 7 -10 3 -15z m-20 -17 c3 -5 -1 -9 -9 -9 -8
0 -12 4 -9 9 3 4 7 8 9 8 2 0 6 -4 9 -8z m-131 -237 c-3 -9 -8 -14 -10 -11 -3
3 -2 9 2 15 9 16 15 13 8 -4z m-28 -55 c-9 -16 -18 -30 -21 -30 -2 0 2 14 11
30 9 17 18 30 21 30 2 0 -2 -13 -11 -30z m-78 -212 c-3 -8 -6 -5 -6 6 -1 11 2
17 5 13 3 -3 4 -12 1 -19z m-35 -69 l-10 -44 -1 55 c-1 39 2 51 10 43 7 -7 8
-24 1 -54z"/>
<path d="M2418 4433 c6 -2 18 -2 25 0 6 3 1 5 -13 5 -14 0 -19 -2 -12 -5z"/>
<path d="M2837 4397 c4 -6 -7 -8 -28 -4 -31 5 -32 5 -11 -5 18 -9 28 -9 42 0
10 6 21 8 24 5 10 -10 -14 -32 -29 -27 -8 3 -22 1 -32 -5 -14 -7 -7 -9 29 -6
26 3 50 5 55 6 24 4 74 -2 70 -8 -3 -5 14 -9 37 -9 l41 -2 -36 13 c-20 7 -54
15 -75 18 -21 3 -43 12 -49 20 -11 15 -48 19 -38 4z"/>
<path d="M2910 4400 l-35 -6 48 -8 c27 -4 51 -5 55 -2 3 3 -2 6 -10 6 -9 0
-18 3 -20 8 -1 4 -19 5 -38 2z"/>
<path d="M2903 4343 c9 -2 23 -2 30 0 6 3 -1 5 -18 5 -16 0 -22 -2 -12 -5z"/>
<path d="M2057 3093 c-3 -2 -15 -6 -28 -8 -47 -9 -123 -55 -124 -75 -1 -11 0
-20 3 -20 2 0 33 16 68 36 52 29 64 33 64 19 0 -9 5 -26 11 -37 8 -16 13 -18
19 -8 7 11 14 10 35 -4 15 -10 24 -13 21 -7 -4 6 -2 11 4 11 7 0 10 -6 7 -12
-2 -7 -16 -12 -31 -11 -14 1 -24 -2 -21 -8 4 -5 22 -9 42 -9 29 0 35 3 31 18
-5 19 26 54 38 44 3 -4 1 3 -5 16 -10 19 -9 22 8 22 34 0 33 18 -1 29 -31 10
-132 13 -141 4z m93 -17 c0 -15 -14 -35 -21 -30 -15 9 -10 34 6 34 8 0 15 -2
15 -4z"/>
<path d="M3011 3087 c-28 -11 -31 -15 -17 -20 9 -4 14 -11 11 -17 -3 -5 -1
-10 4 -10 6 0 11 5 11 11 0 5 5 7 10 4 6 -3 10 -15 10 -26 0 -14 7 -19 26 -19
21 0 25 -4 21 -20 -6 -22 19 -35 46 -24 15 5 15 8 1 21 -13 14 -13 17 3 35 9
11 25 17 35 15 11 -3 18 0 18 9 0 18 5 18 35 -2 14 -9 25 -14 25 -10 0 3 10
-4 22 -16 14 -14 23 -18 26 -10 2 7 9 9 15 5 7 -3 4 3 -6 14 -47 54 -221 89
-296 60z m89 -20 c0 -8 -7 -14 -15 -14 -8 0 -15 6 -15 14 0 7 7 13 15 13 8 0
15 -6 15 -13z"/>
<path d="M3035 2980 c3 -5 14 -10 23 -10 15 0 15 2 2 10 -20 13 -33 13 -25 0z"/>
<path d="M2740 2324 l-25 -15 25 7 c28 7 35 12 29 18 -2 2 -15 -2 -29 -10z"/>
<path d="M2470 2316 c0 -2 7 -7 16 -10 8 -3 12 -2 9 4 -6 10 -25 14 -25 6z"/>
<path d="M2671 2004 c-41 -7 -88 -11 -105 -9 -93 13 -157 15 -206 7 l-55 -10
65 0 c36 0 106 -3 155 -7 59 -4 129 -1 202 9 61 8 131 13 155 10 l43 -3 -40 9
c-55 12 -126 10 -214 -6z"/>
<path d="M3860 2099 c0 -5 5 -7 10 -4 6 3 10 8 10 11 0 2 -4 4 -10 4 -5 0 -10
-5 -10 -11z"/>
<path d="M3010 4660 c8 -5 20 -10 25 -10 6 0 3 5 -5 10 -8 5 -19 10 -25 10 -5
0 -3 -5 5 -10z"/>
<path d="M3090 4645 c0 -7 81 -47 86 -43 2 3 -17 14 -41 26 -25 12 -45 20 -45
17z"/>
<path d="M2960 4622 c0 -6 9 -12 20 -15 11 -3 20 -3 20 -1 0 2 -9 8 -20 14
-11 6 -20 7 -20 2z"/>
<path d="M1790 4205 c-11 -13 -10 -14 4 -9 9 3 16 10 16 15 0 13 -6 11 -20 -6z"/>
<path d="M1631 3924 c0 -11 3 -14 6 -6 3 7 2 16 -1 19 -3 4 -6 -2 -5 -13z"/>
<path d="M1547 3671 c-4 -17 -3 -21 5 -13 5 5 8 16 6 23 -3 8 -7 3 -11 -10z"/>
<path d="M1536 3624 c-3 -9 -8 -55 -11 -102 -5 -98 0 -92 10 11 4 37 10 65 14
62 5 -2 6 7 3 20 -5 29 -8 31 -16 9z"/>
<path d="M1491 3414 c0 -11 3 -14 6 -6 3 7 2 16 -1 19 -3 4 -6 -2 -5 -13z"/>
<path d="M1505 3375 c-4 -31 -5 -58 -2 -61 2 -3 8 20 12 51 3 31 4 59 2 62 -3
2 -9 -21 -12 -52z"/>
<path d="M1382 3270 c0 -14 2 -19 5 -12 2 6 2 18 0 25 -3 6 -5 1 -5 -13z"/>
<path d="M1406 3163 c-6 -14 -5 -15 5 -6 7 7 10 15 7 18 -3 3 -9 -2 -12 -12z"/>
<path d="M1360 3143 c0 -4 5 -15 10 -23 8 -13 10 -13 10 2 0 9 -4 20 -10 23
-5 3 -10 3 -10 -2z"/>
<path d="M1360 3070 c0 -5 5 -10 11 -10 5 0 7 5 4 10 -3 6 -8 10 -11 10 -2 0
-4 -4 -4 -10z"/>
<path d="M1396 3072 c6 -4 14 -14 17 -22 4 -10 6 -8 6 8 1 15 -5 22 -16 22
-11 0 -14 -3 -7 -8z"/>
<path d="M1337 3056 c-4 -10 -3 -15 3 -11 6 3 11 -4 11 -17 1 -16 3 -18 6 -6
2 10 0 25 -5 34 -8 15 -10 15 -15 0z"/>
<path d="M1372 2975 c-14 -31 -15 -45 -4 -45 5 0 9 6 9 13 0 6 3 22 7 35 10
30 2 28 -12 -3z"/>
<path d="M1371 2902 c0 -15 -5 -21 -13 -16 -7 5 -9 2 -5 -9 3 -8 -1 -21 -9
-27 -8 -7 -14 -20 -13 -29 0 -12 2 -11 9 4 7 17 9 17 9 3 1 -10 6 -18 12 -18
5 0 7 4 4 10 -3 5 -1 19 5 30 6 12 9 33 7 48 -3 23 -4 24 -6 4z"/>
<path d="M1340 2791 c0 -6 5 -13 10 -16 6 -3 10 1 10 9 0 9 -4 16 -10 16 -5 0
-10 -4 -10 -9z"/>
<path d="M1346 2738 c-6 -26 -8 -84 -2 -77 6 6 17 99 12 99 -2 0 -6 -10 -10
-22z"/>
<path d="M1325 2621 c-3 -5 -1 -12 5 -16 5 -3 10 1 10 9 0 18 -6 21 -15 7z"/>
<path d="M1362 2590 c0 -14 2 -19 5 -12 2 6 2 18 0 25 -3 6 -5 1 -5 -13z"/>
<path d="M4065 2569 c-4 -6 -5 -12 -2 -15 2 -3 7 2 10 11 7 17 1 20 -8 4z"/>
<path d="M1372 2490 c0 -14 2 -19 5 -12 2 6 2 18 0 25 -3 6 -5 1 -5 -13z"/>
<path d="M1321 2241 c0 -19 -9 -40 -18 -47 -10 -7 -13 -14 -8 -14 6 0 10 -24
10 -55 -1 -30 2 -52 6 -47 12 12 25 125 18 162 l-6 35 -2 -34z"/>
<path d="M1181 2074 c0 -11 3 -14 6 -6 3 7 2 16 -1 19 -3 4 -6 -2 -5 -13z"/>
<path d="M1303 1935 c0 -33 2 -45 4 -27 2 18 2 45 0 60 -2 15 -4 0 -4 -33z"/>
<path d="M1302 1845 c0 -16 2 -22 5 -12 2 9 2 23 0 30 -3 6 -5 -1 -5 -18z"/>
<path d="M1032 1799 c2 -7 10 -15 17 -17 8 -3 12 1 9 9 -2 7 -10 15 -17 17 -8
3 -12 -1 -9 -9z"/>
<path d="M1026 1772 c-2 -4 -7 -23 -10 -42 l-7 -35 17 30 c9 17 21 33 26 36 5
3 3 9 -6 12 -8 3 -17 3 -20 -1z"/>
<path d="M990 1639 c0 -5 5 -7 10 -4 6 3 10 8 10 11 0 2 -4 4 -10 4 -5 0 -10
-5 -10 -11z"/>
<path d="M981 1603 c-1 -6 -4 -20 -7 -30 -5 -17 -5 -17 6 0 6 10 9 23 6 30 -3
9 -5 9 -5 0z"/>
<path d="M966 1535 c-9 -26 -7 -32 5 -12 6 10 9 21 6 23 -2 3 -7 -2 -11 -11z"/>
<path d="M770 1024 c-12 -19 -20 -37 -17 -40 5 -5 30 31 40 59 10 27 0 20 -23
-19z"/>
<path d="M726 944 c-4 -9 -4 -19 -1 -22 2 -3 7 3 11 12 4 9 4 19 1 22 -2 3 -7
-3 -11 -12z"/>
<path d="M600 680 c-6 -11 -8 -20 -6 -20 3 0 10 9 16 20 6 11 8 20 6 20 -3 0
-10 -9 -16 -20z"/>
<path d="M489 493 c-13 -16 -12 -17 4 -4 9 7 17 15 17 17 0 8 -8 3 -21 -13z"/>
<path d="M440 390 c-6 -11 -8 -20 -6 -20 3 0 10 9 16 20 6 11 8 20 6 20 -3 0
-10 -9 -16 -20z"/>
</g>
</svg>
